<svg version="1.2" xmlns="http://www.w3.org/2000/svg" viewBox="0 0 1000 1000" width="1000" height="1000"><style>.a{fill:#fff}.b{fill:#e6e6e6}</style><path class="a" d="m25 25v-25h25v25zm50 0v-25h25v25zm50 0v-25h25v25zm50 0v-25h25v25zm50 0v-25h25v25zm50 0v-25h25v25zm50 0v-25h25v25zm50 0v-25h25v25zm50 0v-25h25v25zm50 0v-25h25v25zm50 0v-25h25v25zm50 0v-25h25v25zm50 0v-25h25v25zm50 0v-25h25v25zm50 0v-25h25v25zm50 0v-25h25v25zm50 0v-25h25v25zm50 0v-25h25v25zm50 0v-25h25v25zm50 0v-25h25v25zm-975 25v-25h25v25zm50 0v-25h25v25zm50 0v-25h25v25zm50 0v-25h25v25zm50 0v-25h25v25zm50 0v-25h25v25zm50 0v-25h25v25zm50 0v-25h25v25zm50 0v-25h25v25zm50 0v-25h25v25zm50 0v-25h25v25zm50 0v-25h25v25zm50 0v-25h25v25zm50 0v-25h25v25zm50 0v-25h25v25zm50 0v-25h25v25zm50 0v-25h25v25zm50 0v-25h25v25zm50 0v-25h25v25zm50 0v-25h25v25zm-925 25v-25h25v25zm50 0v-25h25v25zm50 0v-25h25v25zm50 0v-25h25v25zm50 0v-25h25v25zm50 0v-25h25v25zm50 0v-25h25v25zm50 0v-25h25v25zm50 0v-25h25v25zm50 0v-25h25v25zm50 0v-25h25v25zm50 0v-25h25v25zm50 0v-25h25v25zm50 0v-25h25v25zm50 0v-25h25v25zm50 0v-25h25v25zm50 0v-25h25v25zm50 0v-25h25v25zm50 0v-25h25v25zm50 0v-25h25v25zm-975 25v-25h25v25zm50 0v-25h25v25zm50 0v-25h25v25zm50 0v-25h25v25zm50 0v-25h25v25zm50 0v-25h25v25zm50 0v-25h25v25zm50 0v-25h25v25zm50 0v-25h25v25zm50 0v-25h25v25zm50 0v-25h25v25zm50 0v-25h25v25zm50 0v-25h25v25zm50 0v-25h25v25zm50 0v-25h25v25zm50 0v-25h25v25zm50 0v-25h25v25zm50 0v-25h25v25zm50 0v-25h25v25zm50 0v-25h25v25zm-925 25v-25h25v25zm50 0v-25h25v25zm50 0v-25h25v25zm50 0v-25h25v25zm50 0v-25h25v25zm50 0v-25h25v25zm50 0v-25h25v25zm50 0v-25h25v25zm50 0v-25h25v25zm50 0v-25h25v25zm50 0v-25h25v25zm50 0v-25h25v25zm50 0v-25h25v25zm50 0v-25h25v25zm50 0v-25h25v25zm50 0v-25h25v25zm50 0v-25h25v25zm50 0v-25h25v25zm50 0v-25h25v25zm50 0v-25h25v25zm-975 25v-25h25v25zm50 0v-25h25v25zm50 0v-25h25v25zm50 0v-25h25v25zm50 0v-25h25v25zm50 0v-25h25v25zm50 0v-25h25v25zm50 0v-25h25v25zm50 0v-25h25v25zm50 0v-25h25v25zm50 0v-25h25v25zm50 0v-25h25v25zm50 0v-25h25v25zm50 0v-25h25v25zm50 0v-25h25v25zm50 0v-25h25v25zm50 0v-25h25v25zm50 0v-25h25v25zm50 0v-25h25v25zm50 0v-25h25v25zm-925 25v-25h25v25zm50 0v-25h25v25zm50 0v-25h25v25zm50 0v-25h25v25zm50 0v-25h25v25zm50 0v-25h25v25zm50 0v-25h25v25zm50 0v-25h25v25zm50 0v-25h25v25zm50 0v-25h25v25zm50 0v-25h25v25zm50 0v-25h25v25zm50 0v-25h25v25zm50 0v-25h25v25zm50 0v-25h25v25zm50 0v-25h25v25zm50 0v-25h25v25zm50 0v-25h25v25zm50 0v-25h25v25zm50 0v-25h25v25zm-975 25v-25h25v25zm50 0v-25h25v25zm50 0v-25h25v25zm50 0v-25h25v25zm50 0v-25h25v25zm50 0v-25h25v25zm50 0v-25h25v25zm50 0v-25h25v25zm50 0v-25h25v25zm50 0v-25h25v25zm50 0v-25h25v25zm50 0v-25h25v25zm50 0v-25h25v25zm50 0v-25h25v25zm50 0v-25h25v25zm50 0v-25h25v25zm50 0v-25h25v25zm50 0v-25h25v25zm50 0v-25h25v25zm50 0v-25h25v25zm-925 25v-25h25v25zm50 0v-25h25v25zm50 0v-25h25v25zm50 0v-25h25v25zm50 0v-25h25v25zm50 0v-25h25v25zm50 0v-25h25v25zm50 0v-25h25v25zm50 0v-25h25v25zm50 0v-25h25v25zm50 0v-25h25v25zm50 0v-25h25v25zm50 0v-25h25v25zm50 0v-25h25v25zm50 0v-25h25v25zm50 0v-25h25v25zm50 0v-25h25v25zm50 0v-25h25v25zm50 0v-25h25v25zm50 0v-25h25v25zm-975 25v-25h25v25zm50 0v-25h25v25zm50 0v-25h25v25zm50 0v-25h25v25zm50 0v-25h25v25zm50 0v-25h25v25zm50 0v-25h25v25zm50 0v-25h25v25zm50 0v-25h25v25zm50 0v-25h25v25zm50 0v-25h25v25zm50 0v-25h25v25zm50 0v-25h25v25zm50 0v-25h25v25zm50 0v-25h25v25zm50 0v-25h25v25zm50 0v-25h25v25zm50 0v-25h25v25zm50 0v-25h25v25zm50 0v-25h25v25zm-925 25v-25h25v25zm50 0v-25h25v25zm50 0v-25h25v25zm50 0v-25h25v25zm50 0v-25h25v25zm50 0v-25h25v25zm50 0v-25h25v25zm50 0v-25h25v25zm50 0v-25h25v25zm50 0v-25h25v25zm50 0v-25h25v25zm50 0v-25h25v25zm50 0v-25h25v25zm50 0v-25h25v25zm50 0v-25h25v25zm50 0v-25h25v25zm50 0v-25h25v25zm50 0v-25h25v25zm50 0v-25h25v25zm50 0v-25h25v25zm-975 25v-25h25v25zm50 0v-25h25v25zm50 0v-25h25v25zm50 0v-25h25v25zm50 0v-25h25v25zm50 0v-25h25v25zm50 0v-25h25v25zm50 0v-25h25v25zm50 0v-25h25v25zm50 0v-25h25v25zm50 0v-25h25v25zm50 0v-25h25v25zm50 0v-25h25v25zm50 0v-25h25v25zm50 0v-25h25v25zm50 0v-25h25v25zm50 0v-25h25v25zm50 0v-25h25v25zm50 0v-25h25v25zm50 0v-25h25v25zm-925 25v-25h25v25zm50 0v-25h25v25zm50 0v-25h25v25zm50 0v-25h25v25zm50 0v-25h25v25zm50 0v-25h25v25zm50 0v-25h25v25zm50 0v-25h25v25zm50 0v-25h25v25zm50 0v-25h25v25zm50 0v-25h25v25zm50 0v-25h25v25zm50 0v-25h25v25zm50 0v-25h25v25zm50 0v-25h25v25zm50 0v-25h25v25zm50 0v-25h25v25zm50 0v-25h25v25zm50 0v-25h25v25zm50 0v-25h25v25zm-975 25v-25h25v25zm50 0v-25h25v25zm50 0v-25h25v25zm50 0v-25h25v25zm50 0v-25h25v25zm50 0v-25h25v25zm50 0v-25h25v25zm50 0v-25h25v25zm50 0v-25h25v25zm50 0v-25h25v25zm50 0v-25h25v25zm50 0v-25h25v25zm50 0v-25h25v25zm50 0v-25h25v25zm50 0v-25h25v25zm50 0v-25h25v25zm50 0v-25h25v25zm50 0v-25h25v25zm50 0v-25h25v25zm50 0v-25h25v25zm-925 25v-25h25v25zm50 0v-25h25v25zm50 0v-25h25v25zm50 0v-25h25v25zm50 0v-25h25v25zm50 0v-25h25v25zm50 0v-25h25v25zm50 0v-25h25v25zm50 0v-25h25v25zm50 0v-25h25v25zm50 0v-25h25v25zm50 0v-25h25v25zm50 0v-25h25v25zm50 0v-25h25v25zm50 0v-25h25v25zm50 0v-25h25v25zm50 0v-25h25v25zm50 0v-25h25v25zm50 0v-25h25v25zm50 0v-25h25v25zm-975 25v-25h25v25zm50 0v-25h25v25zm50 0v-25h25v25zm50 0v-25h25v25zm50 0v-25h25v25zm50 0v-25h25v25zm50 0v-25h25v25zm50 0v-25h25v25zm50 0v-25h25v25zm50 0v-25h25v25zm50 0v-25h25v25zm50 0v-25h25v25zm50 0v-25h25v25zm50 0v-25h25v25zm50 0v-25h25v25zm50 0v-25h25v25zm50 0v-25h25v25zm50 0v-25h25v25zm50 0v-25h25v25zm50 0v-25h25v25zm-925 25v-25h25v25zm50 0v-25h25v25zm50 0v-25h25v25zm50 0v-25h25v25zm50 0v-25h25v25zm50 0v-25h25v25zm50 0v-25h25v25zm50 0v-25h25v25zm50 0v-25h25v25zm50 0v-25h25v25zm50 0v-25h25v25zm50 0v-25h25v25zm50 0v-25h25v25zm50 0v-25h25v25zm50 0v-25h25v25zm50 0v-25h25v25zm50 0v-25h25v25zm50 0v-25h25v25zm50 0v-25h25v25zm50 0v-25h25v25zm-975 25v-25h25v25zm50 0v-25h25v25zm50 0v-25h25v25zm50 0v-25h25v25zm50 0v-25h25v25zm50 0v-25h25v25zm50 0v-25h25v25zm50 0v-25h25v25zm50 0v-25h25v25zm50 0v-25h25v25zm50 0v-25h25v25zm50 0v-25h25v25zm50 0v-25h25v25zm50 0v-25h25v25zm50 0v-25h25v25zm50 0v-25h25v25zm50 0v-25h25v25zm50 0v-25h25v25zm50 0v-25h25v25zm50 0v-25h25v25zm-925 25v-25h25v25zm50 0v-25h25v25zm50 0v-25h25v25zm50 0v-25h25v25zm50 0v-25h25v25zm50 0v-25h25v25zm50 0v-25h25v25zm50 0v-25h25v25zm50 0v-25h25v25zm50 0v-25h25v25zm50 0v-25h25v25zm50 0v-25h25v25zm50 0v-25h25v25zm50 0v-25h25v25zm50 0v-25h25v25zm50 0v-25h25v25zm50 0v-25h25v25zm50 0v-25h25v25zm50 0v-25h25v25zm50 0v-25h25v25zm-975 25v-25h25v25zm50 0v-25h25v25zm50 0v-25h25v25zm50 0v-25h25v25zm50 0v-25h25v25zm50 0v-25h25v25zm50 0v-25h25v25zm50 0v-25h25v25zm50 0v-25h25v25zm50 0v-25h25v25zm50 0v-25h25v25zm50 0v-25h25v25zm50 0v-25h25v25zm50 0v-25h25v25zm50 0v-25h25v25zm50 0v-25h25v25zm50 0v-25h25v25zm50 0v-25h25v25zm50 0v-25h25v25zm50 0v-25h25v25zm-925 25v-25h25v25zm50 0v-25h25v25zm50 0v-25h25v25zm50 0v-25h25v25zm50 0v-25h25v25zm50 0v-25h25v25zm50 0v-25h25v25zm50 0v-25h25v25zm50 0v-25h25v25zm50 0v-25h25v25zm50 0v-25h25v25zm50 0v-25h25v25zm50 0v-25h25v25zm50 0v-25h25v25zm50 0v-25h25v25zm50 0v-25h25v25zm50 0v-25h25v25zm50 0v-25h25v25zm50 0v-25h25v25zm50 0v-25h25v25zm-975 25v-25h25v25zm50 0v-25h25v25zm50 0v-25h25v25zm50 0v-25h25v25zm50 0v-25h25v25zm50 0v-25h25v25zm50 0v-25h25v25zm50 0v-25h25v25zm50 0v-25h25v25zm50 0v-25h25v25zm50 0v-25h25v25zm50 0v-25h25v25zm50 0v-25h25v25zm50 0v-25h25v25zm50 0v-25h25v25zm50 0v-25h25v25zm50 0v-25h25v25zm50 0v-25h25v25zm50 0v-25h25v25zm50 0v-25h25v25zm-925 25v-25h25v25zm50 0v-25h25v25zm50 0v-25h25v25zm50 0v-25h25v25zm50 0v-25h25v25zm50 0v-25h25v25zm50 0v-25h25v25zm50 0v-25h25v25zm50 0v-25h25v25zm50 0v-25h25v25zm50 0v-25h25v25zm50 0v-25h25v25zm50 0v-25h25v25zm50 0v-25h25v25zm50 0v-25h25v25zm50 0v-25h25v25zm50 0v-25h25v25zm50 0v-25h25v25zm50 0v-25h25v25zm50 0v-25h25v25zm-975 25v-25h25v25zm50 0v-25h25v25zm50 0v-25h25v25zm50 0v-25h25v25zm50 0v-25h25v25zm50 0v-25h25v25zm50 0v-25h25v25zm50 0v-25h25v25zm50 0v-25h25v25zm50 0v-25h25v25zm50 0v-25h25v25zm50 0v-25h25v25zm50 0v-25h25v25zm50 0v-25h25v25zm50 0v-25h25v25zm50 0v-25h25v25zm50 0v-25h25v25zm50 0v-25h25v25zm50 0v-25h25v25zm50 0v-25h25v25zm-925 25v-25h25v25zm50 0v-25h25v25zm50 0v-25h25v25zm50 0v-25h25v25zm50 0v-25h25v25zm50 0v-25h25v25zm50 0v-25h25v25zm50 0v-25h25v25zm50 0v-25h25v25zm50 0v-25h25v25zm50 0v-25h25v25zm50 0v-25h25v25zm50 0v-25h25v25zm50 0v-25h25v25zm50 0v-25h25v25zm50 0v-25h25v25zm50 0v-25h25v25zm50 0v-25h25v25zm50 0v-25h25v25zm50 0v-25h25v25zm-975 25v-25h25v25zm50 0v-25h25v25zm50 0v-25h25v25zm50 0v-25h25v25zm50 0v-25h25v25zm50 0v-25h25v25zm50 0v-25h25v25zm50 0v-25h25v25zm50 0v-25h25v25zm50 0v-25h25v25zm50 0v-25h25v25zm50 0v-25h25v25zm50 0v-25h25v25zm50 0v-25h25v25zm50 0v-25h25v25zm50 0v-25h25v25zm50 0v-25h25v25zm50 0v-25h25v25zm50 0v-25h25v25zm50 0v-25h25v25zm-925 25v-25h25v25zm50 0v-25h25v25zm50 0v-25h25v25zm50 0v-25h25v25zm50 0v-25h25v25zm50 0v-25h25v25zm50 0v-25h25v25zm50 0v-25h25v25zm50 0v-25h25v25zm50 0v-25h25v25zm50 0v-25h25v25zm50 0v-25h25v25zm50 0v-25h25v25zm50 0v-25h25v25zm50 0v-25h25v25zm50 0v-25h25v25zm50 0v-25h25v25zm50 0v-25h25v25zm50 0v-25h25v25zm50 0v-25h25v25zm-975 25v-25h25v25zm50 0v-25h25v25zm50 0v-25h25v25zm50 0v-25h25v25zm50 0v-25h25v25zm50 0v-25h25v25zm50 0v-25h25v25zm50 0v-25h25v25zm50 0v-25h25v25zm50 0v-25h25v25zm50 0v-25h25v25zm50 0v-25h25v25zm50 0v-25h25v25zm50 0v-25h25v25zm50 0v-25h25v25zm50 0v-25h25v25zm50 0v-25h25v25zm50 0v-25h25v25zm50 0v-25h25v25zm50 0v-25h25v25zm-925 25v-25h25v25zm50 0v-25h25v25zm50 0v-25h25v25zm50 0v-25h25v25zm50 0v-25h25v25zm50 0v-25h25v25zm50 0v-25h25v25zm50 0v-25h25v25zm50 0v-25h25v25zm50 0v-25h25v25zm50 0v-25h25v25zm50 0v-25h25v25zm50 0v-25h25v25zm50 0v-25h25v25zm50 0v-25h25v25zm50 0v-25h25v25zm50 0v-25h25v25zm50 0v-25h25v25zm50 0v-25h25v25zm50 0v-25h25v25zm-975 25v-25h25v25zm50 0v-25h25v25zm50 0v-25h25v25zm50 0v-25h25v25zm50 0v-25h25v25zm50 0v-25h25v25zm50 0v-25h25v25zm50 0v-25h25v25zm50 0v-25h25v25zm50 0v-25h25v25zm50 0v-25h25v25zm50 0v-25h25v25zm50 0v-25h25v25zm50 0v-25h25v25zm50 0v-25h25v25zm50 0v-25h25v25zm50 0v-25h25v25zm50 0v-25h25v25zm50 0v-25h25v25zm50 0v-25h25v25zm-925 25v-25h25v25zm50 0v-25h25v25zm50 0v-25h25v25zm50 0v-25h25v25zm50 0v-25h25v25zm50 0v-25h25v25zm50 0v-25h25v25zm50 0v-25h25v25zm50 0v-25h25v25zm50 0v-25h25v25zm50 0v-25h25v25zm50 0v-25h25v25zm50 0v-25h25v25zm50 0v-25h25v25zm50 0v-25h25v25zm50 0v-25h25v25zm50 0v-25h25v25zm50 0v-25h25v25zm50 0v-25h25v25zm50 0v-25h25v25zm-975 25v-25h25v25zm50 0v-25h25v25zm50 0v-25h25v25zm50 0v-25h25v25zm50 0v-25h25v25zm50 0v-25h25v25zm50 0v-25h25v25zm50 0v-25h25v25zm50 0v-25h25v25zm50 0v-25h25v25zm50 0v-25h25v25zm50 0v-25h25v25zm50 0v-25h25v25zm50 0v-25h25v25zm50 0v-25h25v25zm50 0v-25h25v25zm50 0v-25h25v25zm50 0v-25h25v25zm50 0v-25h25v25zm50 0v-25h25v25zm-925 25v-25h25v25zm50 0v-25h25v25zm50 0v-25h25v25zm50 0v-25h25v25zm50 0v-25h25v25zm50 0v-25h25v25zm50 0v-25h25v25zm50 0v-25h25v25zm50 0v-25h25v25zm50 0v-25h25v25zm50 0v-25h25v25zm50 0v-25h25v25zm50 0v-25h25v25zm50 0v-25h25v25zm50 0v-25h25v25zm50 0v-25h25v25zm50 0v-25h25v25zm50 0v-25h25v25zm50 0v-25h25v25zm50 0v-25h25v25zm-975 25v-25h25v25zm50 0v-25h25v25zm50 0v-25h25v25zm50 0v-25h25v25zm50 0v-25h25v25zm50 0v-25h25v25zm50 0v-25h25v25zm50 0v-25h25v25zm50 0v-25h25v25zm50 0v-25h25v25zm50 0v-25h25v25zm50 0v-25h25v25zm50 0v-25h25v25zm50 0v-25h25v25zm50 0v-25h25v25zm50 0v-25h25v25zm50 0v-25h25v25zm50 0v-25h25v25zm50 0v-25h25v25zm50 0v-25h25v25zm-925 25v-25h25v25zm50 0v-25h25v25zm50 0v-25h25v25zm50 0v-25h25v25zm50 0v-25h25v25zm50 0v-25h25v25zm50 0v-25h25v25zm50 0v-25h25v25zm50 0v-25h25v25zm50 0v-25h25v25zm50 0v-25h25v25zm50 0v-25h25v25zm50 0v-25h25v25zm50 0v-25h25v25zm50 0v-25h25v25zm50 0v-25h25v25zm50 0v-25h25v25zm50 0v-25h25v25zm50 0v-25h25v25zm50 0v-25h25v25zm-975 25v-25h25v25zm50 0v-25h25v25zm50 0v-25h25v25zm50 0v-25h25v25zm50 0v-25h25v25zm50 0v-25h25v25zm50 0v-25h25v25zm50 0v-25h25v25zm50 0v-25h25v25zm50 0v-25h25v25zm50 0v-25h25v25zm50 0v-25h25v25zm50 0v-25h25v25zm50 0v-25h25v25zm50 0v-25h25v25zm50 0v-25h25v25zm50 0v-25h25v25zm50 0v-25h25v25zm50 0v-25h25v25zm50 0v-25h25v25zm-925 25v-25h25v25zm50 0v-25h25v25zm50 0v-25h25v25zm50 0v-25h25v25zm50 0v-25h25v25zm50 0v-25h25v25zm50 0v-25h25v25zm50 0v-25h25v25zm50 0v-25h25v25zm50 0v-25h25v25zm50 0v-25h25v25zm50 0v-25h25v25zm50 0v-25h25v25zm50 0v-25h25v25zm50 0v-25h25v25zm50 0v-25h25v25zm50 0v-25h25v25zm50 0v-25h25v25zm50 0v-25h25v25zm50 0v-25h25v25zm-975 25v-25h25v25zm50 0v-25h25v25zm50 0v-25h25v25zm50 0v-25h25v25zm50 0v-25h25v25zm50 0v-25h25v25zm50 0v-25h25v25zm50 0v-25h25v25zm50 0v-25h25v25zm50 0v-25h25v25zm50 0v-25h25v25zm50 0v-25h25v25zm50 0v-25h25v25zm50 0v-25h25v25zm50 0v-25h25v25zm50 0v-25h25v25zm50 0v-25h25v25zm50 0v-25h25v25zm50 0v-25h25v25zm50 0v-25h25v25zm-925 25v-25h25v25zm50 0v-25h25v25zm50 0v-25h25v25zm50 0v-25h25v25zm50 0v-25h25v25zm50 0v-25h25v25zm50 0v-25h25v25zm50 0v-25h25v25zm50 0v-25h25v25zm50 0v-25h25v25zm50 0v-25h25v25zm50 0v-25h25v25zm50 0v-25h25v25zm50 0v-25h25v25zm50 0v-25h25v25zm50 0v-25h25v25zm50 0v-25h25v25zm50 0v-25h25v25zm50 0v-25h25v25zm50 0v-25h25v25zm-975 25v-25h25v25zm50 0v-25h25v25zm50 0v-25h25v25zm50 0v-25h25v25zm50 0v-25h25v25zm50 0v-25h25v25zm50 0v-25h25v25zm50 0v-25h25v25zm50 0v-25h25v25zm50 0v-25h25v25zm50 0v-25h25v25zm50 0v-25h25v25zm50 0v-25h25v25zm50 0v-25h25v25zm50 0v-25h25v25zm50 0v-25h25v25zm50 0v-25h25v25zm50 0v-25h25v25zm50 0v-25h25v25zm50 0v-25h25v25z"/><path class="b" d="m0 25v-25h25v25zm50 0v-25h25v25zm50 0v-25h25v25zm50 0v-25h25v25zm50 0v-25h25v25zm50 0v-25h25v25zm50 0v-25h25v25zm50 0v-25h25v25zm50 0v-25h25v25zm50 0v-25h25v25zm50 0v-25h25v25zm50 0v-25h25v25zm50 0v-25h25v25zm50 0v-25h25v25zm50 0v-25h25v25zm50 0v-25h25v25zm50 0v-25h25v25zm50 0v-25h25v25zm50 0v-25h25v25zm50 0v-25h25v25zm-925 25v-25h25v25zm50 0v-25h25v25zm50 0v-25h25v25zm50 0v-25h25v25zm50 0v-25h25v25zm50 0v-25h25v25zm50 0v-25h25v25zm50 0v-25h25v25zm50 0v-25h25v25zm50 0v-25h25v25zm50 0v-25h25v25zm50 0v-25h25v25zm50 0v-25h25v25zm50 0v-25h25v25zm50 0v-25h25v25zm50 0v-25h25v25zm50 0v-25h25v25zm50 0v-25h25v25zm50 0v-25h25v25zm50 0v-25h25v25zm-975 25v-25h25v25zm50 0v-25h25v25zm50 0v-25h25v25zm50 0v-25h25v25zm50 0v-25h25v25zm50 0v-25h25v25zm50 0v-25h25v25zm50 0v-25h25v25zm50 0v-25h25v25zm50 0v-25h25v25zm50 0v-25h25v25zm50 0v-25h25v25zm50 0v-25h25v25zm50 0v-25h25v25zm50 0v-25h25v25zm50 0v-25h25v25zm50 0v-25h25v25zm50 0v-25h25v25zm50 0v-25h25v25zm50 0v-25h25v25zm-925 25v-25h25v25zm50 0v-25h25v25zm50 0v-25h25v25zm50 0v-25h25v25zm50 0v-25h25v25zm50 0v-25h25v25zm50 0v-25h25v25zm50 0v-25h25v25zm50 0v-25h25v25zm50 0v-25h25v25zm50 0v-25h25v25zm50 0v-25h25v25zm50 0v-25h25v25zm50 0v-25h25v25zm50 0v-25h25v25zm50 0v-25h25v25zm50 0v-25h25v25zm50 0v-25h25v25zm50 0v-25h25v25zm50 0v-25h25v25zm-975 25v-25h25v25zm50 0v-25h25v25zm50 0v-25h25v25zm50 0v-25h25v25zm50 0v-25h25v25zm50 0v-25h25v25zm50 0v-25h25v25zm50 0v-25h25v25zm50 0v-25h25v25zm50 0v-25h25v25zm50 0v-25h25v25zm50 0v-25h25v25zm50 0v-25h25v25zm50 0v-25h25v25zm50 0v-25h25v25zm50 0v-25h25v25zm50 0v-25h25v25zm50 0v-25h25v25zm50 0v-25h25v25zm50 0v-25h25v25zm-925 25v-25h25v25zm50 0v-25h25v25zm50 0v-25h25v25zm50 0v-25h25v25zm50 0v-25h25v25zm50 0v-25h25v25zm50 0v-25h25v25zm50 0v-25h25v25zm50 0v-25h25v25zm50 0v-25h25v25zm50 0v-25h25v25zm50 0v-25h25v25zm50 0v-25h25v25zm50 0v-25h25v25zm50 0v-25h25v25zm50 0v-25h25v25zm50 0v-25h25v25zm50 0v-25h25v25zm50 0v-25h25v25zm50 0v-25h25v25zm-975 25v-25h25v25zm50 0v-25h25v25zm50 0v-25h25v25zm50 0v-25h25v25zm50 0v-25h25v25zm50 0v-25h25v25zm50 0v-25h25v25zm50 0v-25h25v25zm50 0v-25h25v25zm50 0v-25h25v25zm50 0v-25h25v25zm50 0v-25h25v25zm50 0v-25h25v25zm50 0v-25h25v25zm50 0v-25h25v25zm50 0v-25h25v25zm50 0v-25h25v25zm50 0v-25h25v25zm50 0v-25h25v25zm50 0v-25h25v25zm-925 25v-25h25v25zm50 0v-25h25v25zm50 0v-25h25v25zm50 0v-25h25v25zm50 0v-25h25v25zm50 0v-25h25v25zm50 0v-25h25v25zm50 0v-25h25v25zm50 0v-25h25v25zm50 0v-25h25v25zm50 0v-25h25v25zm50 0v-25h25v25zm50 0v-25h25v25zm50 0v-25h25v25zm50 0v-25h25v25zm50 0v-25h25v25zm50 0v-25h25v25zm50 0v-25h25v25zm50 0v-25h25v25zm50 0v-25h25v25zm-975 25v-25h25v25zm50 0v-25h25v25zm50 0v-25h25v25zm50 0v-25h25v25zm50 0v-25h25v25zm50 0v-25h25v25zm50 0v-25h25v25zm50 0v-25h25v25zm50 0v-25h25v25zm50 0v-25h25v25zm50 0v-25h25v25zm50 0v-25h25v25zm50 0v-25h25v25zm50 0v-25h25v25zm50 0v-25h25v25zm50 0v-25h25v25zm50 0v-25h25v25zm50 0v-25h25v25zm50 0v-25h25v25zm50 0v-25h25v25zm-925 25v-25h25v25zm50 0v-25h25v25zm50 0v-25h25v25zm50 0v-25h25v25zm50 0v-25h25v25zm50 0v-25h25v25zm50 0v-25h25v25zm50 0v-25h25v25zm50 0v-25h25v25zm50 0v-25h25v25zm50 0v-25h25v25zm50 0v-25h25v25zm50 0v-25h25v25zm50 0v-25h25v25zm50 0v-25h25v25zm50 0v-25h25v25zm50 0v-25h25v25zm50 0v-25h25v25zm50 0v-25h25v25zm50 0v-25h25v25zm-975 25v-25h25v25zm50 0v-25h25v25zm50 0v-25h25v25zm50 0v-25h25v25zm50 0v-25h25v25zm50 0v-25h25v25zm50 0v-25h25v25zm50 0v-25h25v25zm50 0v-25h25v25zm50 0v-25h25v25zm50 0v-25h25v25zm50 0v-25h25v25zm50 0v-25h25v25zm50 0v-25h25v25zm50 0v-25h25v25zm50 0v-25h25v25zm50 0v-25h25v25zm50 0v-25h25v25zm50 0v-25h25v25zm50 0v-25h25v25zm-925 25v-25h25v25zm50 0v-25h25v25zm50 0v-25h25v25zm50 0v-25h25v25zm50 0v-25h25v25zm50 0v-25h25v25zm50 0v-25h25v25zm50 0v-25h25v25zm50 0v-25h25v25zm50 0v-25h25v25zm50 0v-25h25v25zm50 0v-25h25v25zm50 0v-25h25v25zm50 0v-25h25v25zm50 0v-25h25v25zm50 0v-25h25v25zm50 0v-25h25v25zm50 0v-25h25v25zm50 0v-25h25v25zm50 0v-25h25v25zm-975 25v-25h25v25zm50 0v-25h25v25zm50 0v-25h25v25zm50 0v-25h25v25zm50 0v-25h25v25zm50 0v-25h25v25zm50 0v-25h25v25zm50 0v-25h25v25zm50 0v-25h25v25zm50 0v-25h25v25zm50 0v-25h25v25zm50 0v-25h25v25zm50 0v-25h25v25zm50 0v-25h25v25zm50 0v-25h25v25zm50 0v-25h25v25zm50 0v-25h25v25zm50 0v-25h25v25zm50 0v-25h25v25zm50 0v-25h25v25zm-925 25v-25h25v25zm50 0v-25h25v25zm50 0v-25h25v25zm50 0v-25h25v25zm50 0v-25h25v25zm50 0v-25h25v25zm50 0v-25h25v25zm50 0v-25h25v25zm50 0v-25h25v25zm50 0v-25h25v25zm50 0v-25h25v25zm50 0v-25h25v25zm50 0v-25h25v25zm50 0v-25h25v25zm50 0v-25h25v25zm50 0v-25h25v25zm50 0v-25h25v25zm50 0v-25h25v25zm50 0v-25h25v25zm50 0v-25h25v25zm-975 25v-25h25v25zm50 0v-25h25v25zm50 0v-25h25v25zm50 0v-25h25v25zm50 0v-25h25v25zm50 0v-25h25v25zm50 0v-25h25v25zm50 0v-25h25v25zm50 0v-25h25v25zm50 0v-25h25v25zm50 0v-25h25v25zm50 0v-25h25v25zm50 0v-25h25v25zm50 0v-25h25v25zm50 0v-25h25v25zm50 0v-25h25v25zm50 0v-25h25v25zm50 0v-25h25v25zm50 0v-25h25v25zm50 0v-25h25v25zm-925 25v-25h25v25zm50 0v-25h25v25zm50 0v-25h25v25zm50 0v-25h25v25zm50 0v-25h25v25zm50 0v-25h25v25zm50 0v-25h25v25zm50 0v-25h25v25zm50 0v-25h25v25zm50 0v-25h25v25zm50 0v-25h25v25zm50 0v-25h25v25zm50 0v-25h25v25zm50 0v-25h25v25zm50 0v-25h25v25zm50 0v-25h25v25zm50 0v-25h25v25zm50 0v-25h25v25zm50 0v-25h25v25zm50 0v-25h25v25zm-975 25v-25h25v25zm50 0v-25h25v25zm50 0v-25h25v25zm50 0v-25h25v25zm50 0v-25h25v25zm50 0v-25h25v25zm50 0v-25h25v25zm50 0v-25h25v25zm50 0v-25h25v25zm50 0v-25h25v25zm50 0v-25h25v25zm50 0v-25h25v25zm50 0v-25h25v25zm50 0v-25h25v25zm50 0v-25h25v25zm50 0v-25h25v25zm50 0v-25h25v25zm50 0v-25h25v25zm50 0v-25h25v25zm50 0v-25h25v25zm-925 25v-25h25v25zm50 0v-25h25v25zm50 0v-25h25v25zm50 0v-25h25v25zm50 0v-25h25v25zm50 0v-25h25v25zm50 0v-25h25v25zm50 0v-25h25v25zm50 0v-25h25v25zm50 0v-25h25v25zm50 0v-25h25v25zm50 0v-25h25v25zm50 0v-25h25v25zm50 0v-25h25v25zm50 0v-25h25v25zm50 0v-25h25v25zm50 0v-25h25v25zm50 0v-25h25v25zm50 0v-25h25v25zm50 0v-25h25v25zm-975 25v-25h25v25zm50 0v-25h25v25zm50 0v-25h25v25zm50 0v-25h25v25zm50 0v-25h25v25zm50 0v-25h25v25zm50 0v-25h25v25zm50 0v-25h25v25zm50 0v-25h25v25zm50 0v-25h25v25zm50 0v-25h25v25zm50 0v-25h25v25zm50 0v-25h25v25zm50 0v-25h25v25zm50 0v-25h25v25zm50 0v-25h25v25zm50 0v-25h25v25zm50 0v-25h25v25zm50 0v-25h25v25zm50 0v-25h25v25zm-925 25v-25h25v25zm50 0v-25h25v25zm50 0v-25h25v25zm50 0v-25h25v25zm50 0v-25h25v25zm50 0v-25h25v25zm50 0v-25h25v25zm50 0v-25h25v25zm50 0v-25h25v25zm50 0v-25h25v25zm50 0v-25h25v25zm50 0v-25h25v25zm50 0v-25h25v25zm50 0v-25h25v25zm50 0v-25h25v25zm50 0v-25h25v25zm50 0v-25h25v25zm50 0v-25h25v25zm50 0v-25h25v25zm50 0v-25h25v25zm-975 25v-25h25v25zm50 0v-25h25v25zm50 0v-25h25v25zm50 0v-25h25v25zm50 0v-25h25v25zm50 0v-25h25v25zm50 0v-25h25v25zm50 0v-25h25v25zm50 0v-25h25v25zm50 0v-25h25v25zm50 0v-25h25v25zm50 0v-25h25v25zm50 0v-25h25v25zm50 0v-25h25v25zm50 0v-25h25v25zm50 0v-25h25v25zm50 0v-25h25v25zm50 0v-25h25v25zm50 0v-25h25v25zm50 0v-25h25v25zm-925 25v-25h25v25zm50 0v-25h25v25zm50 0v-25h25v25zm50 0v-25h25v25zm50 0v-25h25v25zm50 0v-25h25v25zm50 0v-25h25v25zm50 0v-25h25v25zm50 0v-25h25v25zm50 0v-25h25v25zm50 0v-25h25v25zm50 0v-25h25v25zm50 0v-25h25v25zm50 0v-25h25v25zm50 0v-25h25v25zm50 0v-25h25v25zm50 0v-25h25v25zm50 0v-25h25v25zm50 0v-25h25v25zm50 0v-25h25v25zm-975 25v-25h25v25zm50 0v-25h25v25zm50 0v-25h25v25zm50 0v-25h25v25zm50 0v-25h25v25zm50 0v-25h25v25zm50 0v-25h25v25zm50 0v-25h25v25zm50 0v-25h25v25zm50 0v-25h25v25zm50 0v-25h25v25zm50 0v-25h25v25zm50 0v-25h25v25zm50 0v-25h25v25zm50 0v-25h25v25zm50 0v-25h25v25zm50 0v-25h25v25zm50 0v-25h25v25zm50 0v-25h25v25zm50 0v-25h25v25zm-925 25v-25h25v25zm50 0v-25h25v25zm50 0v-25h25v25zm50 0v-25h25v25zm50 0v-25h25v25zm50 0v-25h25v25zm50 0v-25h25v25zm50 0v-25h25v25zm50 0v-25h25v25zm50 0v-25h25v25zm50 0v-25h25v25zm50 0v-25h25v25zm50 0v-25h25v25zm50 0v-25h25v25zm50 0v-25h25v25zm50 0v-25h25v25zm50 0v-25h25v25zm50 0v-25h25v25zm50 0v-25h25v25zm50 0v-25h25v25zm-975 25v-25h25v25zm50 0v-25h25v25zm50 0v-25h25v25zm50 0v-25h25v25zm50 0v-25h25v25zm50 0v-25h25v25zm50 0v-25h25v25zm50 0v-25h25v25zm50 0v-25h25v25zm50 0v-25h25v25zm50 0v-25h25v25zm50 0v-25h25v25zm50 0v-25h25v25zm50 0v-25h25v25zm50 0v-25h25v25zm50 0v-25h25v25zm50 0v-25h25v25zm50 0v-25h25v25zm50 0v-25h25v25zm50 0v-25h25v25zm-925 25v-25h25v25zm50 0v-25h25v25zm50 0v-25h25v25zm50 0v-25h25v25zm50 0v-25h25v25zm50 0v-25h25v25zm50 0v-25h25v25zm50 0v-25h25v25zm50 0v-25h25v25zm50 0v-25h25v25zm50 0v-25h25v25zm50 0v-25h25v25zm50 0v-25h25v25zm50 0v-25h25v25zm50 0v-25h25v25zm50 0v-25h25v25zm50 0v-25h25v25zm50 0v-25h25v25zm50 0v-25h25v25zm50 0v-25h25v25zm-975 25v-25h25v25zm50 0v-25h25v25zm50 0v-25h25v25zm50 0v-25h25v25zm50 0v-25h25v25zm50 0v-25h25v25zm50 0v-25h25v25zm50 0v-25h25v25zm50 0v-25h25v25zm50 0v-25h25v25zm50 0v-25h25v25zm50 0v-25h25v25zm50 0v-25h25v25zm50 0v-25h25v25zm50 0v-25h25v25zm50 0v-25h25v25zm50 0v-25h25v25zm50 0v-25h25v25zm50 0v-25h25v25zm50 0v-25h25v25zm-925 25v-25h25v25zm50 0v-25h25v25zm50 0v-25h25v25zm50 0v-25h25v25zm50 0v-25h25v25zm50 0v-25h25v25zm50 0v-25h25v25zm50 0v-25h25v25zm50 0v-25h25v25zm50 0v-25h25v25zm50 0v-25h25v25zm50 0v-25h25v25zm50 0v-25h25v25zm50 0v-25h25v25zm50 0v-25h25v25zm50 0v-25h25v25zm50 0v-25h25v25zm50 0v-25h25v25zm50 0v-25h25v25zm50 0v-25h25v25zm-975 25v-25h25v25zm50 0v-25h25v25zm50 0v-25h25v25zm50 0v-25h25v25zm50 0v-25h25v25zm50 0v-25h25v25zm50 0v-25h25v25zm50 0v-25h25v25zm50 0v-25h25v25zm50 0v-25h25v25zm50 0v-25h25v25zm50 0v-25h25v25zm50 0v-25h25v25zm50 0v-25h25v25zm50 0v-25h25v25zm50 0v-25h25v25zm50 0v-25h25v25zm50 0v-25h25v25zm50 0v-25h25v25zm50 0v-25h25v25zm-925 25v-25h25v25zm50 0v-25h25v25zm50 0v-25h25v25zm50 0v-25h25v25zm50 0v-25h25v25zm50 0v-25h25v25zm50 0v-25h25v25zm50 0v-25h25v25zm50 0v-25h25v25zm50 0v-25h25v25zm50 0v-25h25v25zm50 0v-25h25v25zm50 0v-25h25v25zm50 0v-25h25v25zm50 0v-25h25v25zm50 0v-25h25v25zm50 0v-25h25v25zm50 0v-25h25v25zm50 0v-25h25v25zm50 0v-25h25v25zm-975 25v-25h25v25zm50 0v-25h25v25zm50 0v-25h25v25zm50 0v-25h25v25zm50 0v-25h25v25zm50 0v-25h25v25zm50 0v-25h25v25zm50 0v-25h25v25zm50 0v-25h25v25zm50 0v-25h25v25zm50 0v-25h25v25zm50 0v-25h25v25zm50 0v-25h25v25zm50 0v-25h25v25zm50 0v-25h25v25zm50 0v-25h25v25zm50 0v-25h25v25zm50 0v-25h25v25zm50 0v-25h25v25zm50 0v-25h25v25zm-925 25v-25h25v25zm50 0v-25h25v25zm50 0v-25h25v25zm50 0v-25h25v25zm50 0v-25h25v25zm50 0v-25h25v25zm50 0v-25h25v25zm50 0v-25h25v25zm50 0v-25h25v25zm50 0v-25h25v25zm50 0v-25h25v25zm50 0v-25h25v25zm50 0v-25h25v25zm50 0v-25h25v25zm50 0v-25h25v25zm50 0v-25h25v25zm50 0v-25h25v25zm50 0v-25h25v25zm50 0v-25h25v25zm50 0v-25h25v25zm-975 25v-25h25v25zm50 0v-25h25v25zm50 0v-25h25v25zm50 0v-25h25v25zm50 0v-25h25v25zm50 0v-25h25v25zm50 0v-25h25v25zm50 0v-25h25v25zm50 0v-25h25v25zm50 0v-25h25v25zm50 0v-25h25v25zm50 0v-25h25v25zm50 0v-25h25v25zm50 0v-25h25v25zm50 0v-25h25v25zm50 0v-25h25v25zm50 0v-25h25v25zm50 0v-25h25v25zm50 0v-25h25v25zm50 0v-25h25v25zm-925 25v-25h25v25zm50 0v-25h25v25zm50 0v-25h25v25zm50 0v-25h25v25zm50 0v-25h25v25zm50 0v-25h25v25zm50 0v-25h25v25zm50 0v-25h25v25zm50 0v-25h25v25zm50 0v-25h25v25zm50 0v-25h25v25zm50 0v-25h25v25zm50 0v-25h25v25zm50 0v-25h25v25zm50 0v-25h25v25zm50 0v-25h25v25zm50 0v-25h25v25zm50 0v-25h25v25zm50 0v-25h25v25zm50 0v-25h25v25zm-975 25v-25h25v25zm50 0v-25h25v25zm50 0v-25h25v25zm50 0v-25h25v25zm50 0v-25h25v25zm50 0v-25h25v25zm50 0v-25h25v25zm50 0v-25h25v25zm50 0v-25h25v25zm50 0v-25h25v25zm50 0v-25h25v25zm50 0v-25h25v25zm50 0v-25h25v25zm50 0v-25h25v25zm50 0v-25h25v25zm50 0v-25h25v25zm50 0v-25h25v25zm50 0v-25h25v25zm50 0v-25h25v25zm50 0v-25h25v25zm-925 25v-25h25v25zm50 0v-25h25v25zm50 0v-25h25v25zm50 0v-25h25v25zm50 0v-25h25v25zm50 0v-25h25v25zm50 0v-25h25v25zm50 0v-25h25v25zm50 0v-25h25v25zm50 0v-25h25v25zm50 0v-25h25v25zm50 0v-25h25v25zm50 0v-25h25v25zm50 0v-25h25v25zm50 0v-25h25v25zm50 0v-25h25v25zm50 0v-25h25v25zm50 0v-25h25v25zm50 0v-25h25v25zm50 0v-25h25v25zm-975 25v-25h25v25zm50 0v-25h25v25zm50 0v-25h25v25zm50 0v-25h25v25zm50 0v-25h25v25zm50 0v-25h25v25zm50 0v-25h25v25zm50 0v-25h25v25zm50 0v-25h25v25zm50 0v-25h25v25zm50 0v-25h25v25zm50 0v-25h25v25zm50 0v-25h25v25zm50 0v-25h25v25zm50 0v-25h25v25zm50 0v-25h25v25zm50 0v-25h25v25zm50 0v-25h25v25zm50 0v-25h25v25zm50 0v-25h25v25zm-925 25v-25h25v25zm50 0v-25h25v25zm50 0v-25h25v25zm50 0v-25h25v25zm50 0v-25h25v25zm50 0v-25h25v25zm50 0v-25h25v25zm50 0v-25h25v25zm50 0v-25h25v25zm50 0v-25h25v25zm50 0v-25h25v25zm50 0v-25h25v25zm50 0v-25h25v25zm50 0v-25h25v25zm50 0v-25h25v25zm50 0v-25h25v25zm50 0v-25h25v25zm50 0v-25h25v25zm50 0v-25h25v25zm50 0v-25h25v25zm-975 25v-25h25v25zm50 0v-25h25v25zm50 0v-25h25v25zm50 0v-25h25v25zm50 0v-25h25v25zm50 0v-25h25v25zm50 0v-25h25v25zm50 0v-25h25v25zm50 0v-25h25v25zm50 0v-25h25v25zm50 0v-25h25v25zm50 0v-25h25v25zm50 0v-25h25v25zm50 0v-25h25v25zm50 0v-25h25v25zm50 0v-25h25v25zm50 0v-25h25v25zm50 0v-25h25v25zm50 0v-25h25v25zm50 0v-25h25v25zm-925 25v-25h25v25zm50 0v-25h25v25zm50 0v-25h25v25zm50 0v-25h25v25zm50 0v-25h25v25zm50 0v-25h25v25zm50 0v-25h25v25zm50 0v-25h25v25zm50 0v-25h25v25zm50 0v-25h25v25zm50 0v-25h25v25zm50 0v-25h25v25zm50 0v-25h25v25zm50 0v-25h25v25zm50 0v-25h25v25zm50 0v-25h25v25zm50 0v-25h25v25zm50 0v-25h25v25zm50 0v-25h25v25zm50 0v-25h25v25z"/></svg>